<svg id="Layer_1" data-name="Layer 1" xmlns="http://www.w3.org/2000/svg" viewBox="300 300 480 480"><defs><style>.cls-1{fill:#fff;}.cls-2{fill:#ffffff;}.cls-3{fill:#48d1cc;}</style></defs><polygon class="cls-2" points="540 351.9 613.27 425.16 630.01 408.42 540 318.42 450.13 408.29 466.87 425.03 540 351.9"/><polygon class="cls-2" points="540 728.1 466.74 654.84 450 671.58 540 761.58 629.87 671.71 613.13 654.97 540 728.1"/><polygon class="cls-3" points="642.42 420.85 761.58 540.01 642.42 659.17 603.77 620.52 620.51 603.78 642.42 625.69 728.1 540.01 642.42 454.33 607.95 488.8 659.16 540.01 540 659.17 488.79 607.96 437.58 659.17 318.42 540.01 437.58 420.85 476.3 459.57 459.56 476.31 437.58 454.33 351.9 540.01 437.58 625.69 472.05 591.22 420.84 540.01 540 420.85 578.79 459.64 562.05 476.38 540 454.33 454.32 540.01 540 625.69 625.68 540.01 591.21 505.54 540 556.75 523.26 540.01 642.42 420.85"/></svg>